<svg width="900" height="980" viewBox="0 0 900 980" xmlns="http://www.w3.org/2000/svg" font-family="'Segoe UI', system-ui, Arial, sans-serif">

  <!-- Background -->
  <rect width="900" height="980" fill="#0f1117"/>

  <!-- Title -->
  <text x="40" y="52" font-size="22" font-weight="700" fill="#e2e8f0">Growth Capital Academy — Colour Palette</text>
  <text x="40" y="74" font-size="11" fill="#6b7280">All colours used across the live website · Dark / light mode values shown side by side</text>

  <!-- ── PRIMARY ACCENT ── -->
  <text x="40" y="112" font-size="9" fill="#4b5563" letter-spacing="2">PRIMARY ACCENT — GREEN</text>
  <line x1="40" y1="118" x2="860" y2="118" stroke="#1f2937" stroke-width="1"/>

  <!-- GCA Green -->
  <rect x="40"  y="128" width="148" height="60" rx="8" fill="#00d4aa"/>
  <text x="40"  y="202" font-size="11" font-weight="600" fill="#d1d5db">GCA Green</text>
  <text x="40"  y="216" font-size="10" fill="#6b7280" font-family="'Courier New', monospace">#00D4AA</text>
  <text x="40"  y="229" font-size="9" fill="#4b5563">Primary CTA · dark mode</text>

  <!-- GCA Green Light -->
  <rect x="204" y="128" width="148" height="60" rx="8" fill="#00a882"/>
  <text x="204" y="202" font-size="11" font-weight="600" fill="#d1d5db">GCA Green Light</text>
  <text x="204" y="216" font-size="10" fill="#6b7280" font-family="'Courier New', monospace">#00A882</text>
  <text x="204" y="229" font-size="9" fill="#4b5563">Primary CTA · light mode</text>

  <!-- Green Mid -->
  <rect x="368" y="128" width="148" height="60" rx="8" fill="#00b891"/>
  <text x="368" y="202" font-size="11" font-weight="600" fill="#d1d5db">Green Mid</text>
  <text x="368" y="216" font-size="10" fill="#6b7280" font-family="'Courier New', monospace">#00B891</text>
  <text x="368" y="229" font-size="9" fill="#4b5563">Hover states</text>

  <!-- Neon Green -->
  <rect x="532" y="128" width="148" height="60" rx="8" fill="#00ff88"/>
  <text x="532" y="202" font-size="11" font-weight="600" fill="#d1d5db">Neon Green</text>
  <text x="532" y="216" font-size="10" fill="#6b7280" font-family="'Courier New', monospace">#00FF88</text>
  <text x="532" y="229" font-size="9" fill="#4b5563">Tool pages · buy signals</text>

  <!-- Neon Green Dim -->
  <rect x="696" y="128" width="148" height="60" rx="8" fill="#00cc6a"/>
  <text x="696" y="202" font-size="11" font-weight="600" fill="#d1d5db">Neon Green Dim</text>
  <text x="696" y="216" font-size="10" fill="#6b7280" font-family="'Courier New', monospace">#00CC6A</text>
  <text x="696" y="229" font-size="9" fill="#4b5563">Tool pages · hover</text>

  <!-- ── BACKGROUNDS ── -->
  <text x="40" y="264" font-size="9" fill="#4b5563" letter-spacing="2">BACKGROUNDS</text>
  <line x1="40" y1="270" x2="860" y2="270" stroke="#1f2937" stroke-width="1"/>

  <!-- Background (split) -->
  <rect x="40"  y="280" width="74" height="60" rx="8 0 0 8" fill="#060812"/>
  <rect x="114" y="280" width="74" height="60" rx="0 8 8 0" fill="#f5f7ff"/>
  <line x1="114" y1="280" x2="114" y2="340" stroke="#1f2937" stroke-width="1"/>
  <text x="40"  y="354" font-size="11" font-weight="600" fill="#d1d5db">Background</text>
  <text x="40"  y="368" font-size="10" fill="#6b7280" font-family="'Courier New', monospace">#060812 / #F5F7FF</text>
  <text x="40"  y="381" font-size="9" fill="#4b5563">Page bg · dark / light</text>

  <!-- Background 2 (split) -->
  <rect x="204" y="280" width="74" height="60" rx="8 0 0 8" fill="#090c18"/>
  <rect x="278" y="280" width="74" height="60" rx="0 8 8 0" fill="#edf0fa"/>
  <line x1="278" y1="280" x2="278" y2="340" stroke="#1f2937" stroke-width="1"/>
  <text x="204" y="354" font-size="11" font-weight="600" fill="#d1d5db">Background 2</text>
  <text x="204" y="368" font-size="10" fill="#6b7280" font-family="'Courier New', monospace">#090C18 / #EDF0FA</text>
  <text x="204" y="381" font-size="9" fill="#4b5563">Alternating sections</text>

  <!-- Panel (split) -->
  <rect x="368" y="280" width="74" height="60" rx="8 0 0 8" fill="#0d1117"/>
  <rect x="442" y="280" width="74" height="60" rx="0 8 8 0" fill="#f0f2f7"/>
  <line x1="442" y1="280" x2="442" y2="340" stroke="#1f2937" stroke-width="1"/>
  <text x="368" y="354" font-size="11" font-weight="600" fill="#d1d5db">Panel</text>
  <text x="368" y="368" font-size="10" fill="#6b7280" font-family="'Courier New', monospace">#0D1117 / #F0F2F7</text>
  <text x="368" y="381" font-size="9" fill="#4b5563">Sidebar panels, cards</text>

  <!-- Card (split) -->
  <rect x="532" y="280" width="74" height="60" rx="8 0 0 8" fill="#111620"/>
  <rect x="606" y="280" width="74" height="60" rx="0 8 8 0" fill="#ffffff"/>
  <line x1="606" y1="280" x2="606" y2="340" stroke="#1f2937" stroke-width="1"/>
  <text x="532" y="354" font-size="11" font-weight="600" fill="#d1d5db">Card</text>
  <text x="532" y="368" font-size="10" fill="#6b7280" font-family="'Courier New', monospace">#111620 / #FFFFFF</text>
  <text x="532" y="381" font-size="9" fill="#4b5563">Cards, inputs</text>

  <!-- Hover BG -->
  <rect x="696" y="280" width="74" height="60" rx="8 0 0 8" fill="#161c28"/>
  <rect x="770" y="280" width="74" height="60" rx="0 8 8 0" fill="#e4e8f0"/>
  <line x1="770" y1="280" x2="770" y2="340" stroke="#1f2937" stroke-width="1"/>
  <text x="696" y="354" font-size="11" font-weight="600" fill="#d1d5db">Hover BG</text>
  <text x="696" y="368" font-size="10" fill="#6b7280" font-family="'Courier New', monospace">#161C28 / #E4E8F0</text>
  <text x="696" y="381" font-size="9" fill="#4b5563">Hover state backgrounds</text>

  <!-- ── TEXT ── -->
  <text x="40" y="416" font-size="9" fill="#4b5563" letter-spacing="2">TEXT</text>
  <line x1="40" y1="422" x2="860" y2="422" stroke="#1f2937" stroke-width="1"/>

  <!-- Text Primary -->
  <rect x="40"  y="432" width="74" height="60" rx="8 0 0 8" fill="#e2e8f0"/>
  <rect x="114" y="432" width="74" height="60" rx="0 8 8 0" fill="#0f1c2e"/>
  <line x1="114" y1="432" x2="114" y2="492" stroke="#1f2937" stroke-width="1"/>
  <text x="40"  y="506" font-size="11" font-weight="600" fill="#d1d5db">Text Primary</text>
  <text x="40"  y="520" font-size="10" fill="#6b7280" font-family="'Courier New', monospace">#E2E8F0 / #0F1C2E</text>
  <text x="40"  y="533" font-size="9" fill="#4b5563">Headings, body copy</text>

  <!-- Text Secondary -->
  <rect x="204" y="432" width="74" height="60" rx="8 0 0 8" fill="#7a8fa8"/>
  <rect x="278" y="432" width="74" height="60" rx="0 8 8 0" fill="#3d5470"/>
  <line x1="278" y1="432" x2="278" y2="492" stroke="#1f2937" stroke-width="1"/>
  <text x="204" y="506" font-size="11" font-weight="600" fill="#d1d5db">Text Secondary</text>
  <text x="204" y="520" font-size="10" fill="#6b7280" font-family="'Courier New', monospace">#7A8FA8 / #3D5470</text>
  <text x="204" y="533" font-size="9" fill="#4b5563">Subtitles, labels</text>

  <!-- Text Muted -->
  <rect x="368" y="432" width="74" height="60" rx="8 0 0 8" fill="#3d5068"/>
  <rect x="442" y="432" width="74" height="60" rx="0 8 8 0" fill="#7a90aa"/>
  <line x1="442" y1="432" x2="442" y2="492" stroke="#1f2937" stroke-width="1"/>
  <text x="368" y="506" font-size="11" font-weight="600" fill="#d1d5db">Text Muted</text>
  <text x="368" y="520" font-size="10" fill="#6b7280" font-family="'Courier New', monospace">#3D5068 / #7A90AA</text>
  <text x="368" y="533" font-size="9" fill="#4b5563">Placeholders, timestamps</text>

  <!-- Nav Muted -->
  <rect x="532" y="432" width="74" height="60" rx="8 0 0 8" fill="#8892b0"/>
  <rect x="606" y="432" width="74" height="60" rx="0 8 8 0" fill="#556080"/>
  <line x1="606" y1="432" x2="606" y2="492" stroke="#1f2937" stroke-width="1"/>
  <text x="532" y="506" font-size="11" font-weight="600" fill="#d1d5db">Nav Muted</text>
  <text x="532" y="520" font-size="10" fill="#6b7280" font-family="'Courier New', monospace">#8892B0 / #556080</text>
  <text x="532" y="533" font-size="9" fill="#4b5563">Nav links, secondary text</text>

  <!-- ── SIGNALS & STATUS ── -->
  <text x="40" y="568" font-size="9" fill="#4b5563" letter-spacing="2">SIGNALS &amp; STATUS</text>
  <line x1="40" y1="574" x2="860" y2="574" stroke="#1f2937" stroke-width="1"/>

  <!-- Red -->
  <rect x="40"  y="584" width="148" height="60" rx="8" fill="#ff3355"/>
  <text x="40"  y="658" font-size="11" font-weight="600" fill="#d1d5db">Red / Sell</text>
  <text x="40"  y="672" font-size="10" fill="#6b7280" font-family="'Courier New', monospace">#FF3355</text>
  <text x="40"  y="685" font-size="9" fill="#4b5563">Sell signals, errors</text>

  <!-- Amber -->
  <rect x="204" y="584" width="148" height="60" rx="8" fill="#ffaa00"/>
  <text x="204" y="658" font-size="11" font-weight="600" fill="#d1d5db">Amber / Hold</text>
  <text x="204" y="672" font-size="10" fill="#6b7280" font-family="'Courier New', monospace">#FFAA00</text>
  <text x="204" y="685" font-size="9" fill="#4b5563">Hold signals, warnings</text>

  <!-- Blue -->
  <rect x="368" y="584" width="148" height="60" rx="8" fill="#0088ff"/>
  <text x="368" y="658" font-size="11" font-weight="600" fill="#d1d5db">Blue</text>
  <text x="368" y="672" font-size="10" fill="#6b7280" font-family="'Courier New', monospace">#0088FF</text>
  <text x="368" y="685" font-size="9" fill="#4b5563">Active states, info</text>

  <!-- Cyan -->
  <rect x="532" y="584" width="148" height="60" rx="8" fill="#00ddff"/>
  <text x="532" y="658" font-size="11" font-weight="600" fill="#d1d5db">Cyan</text>
  <text x="532" y="672" font-size="10" fill="#6b7280" font-family="'Courier New', monospace">#00DDFF</text>
  <text x="532" y="685" font-size="9" fill="#4b5563">Live data, user highlights</text>

  <!-- Purple -->
  <rect x="696" y="584" width="148" height="60" rx="8" fill="#aa55ff"/>
  <text x="696" y="658" font-size="11" font-weight="600" fill="#d1d5db">Purple</text>
  <text x="696" y="672" font-size="10" fill="#6b7280" font-family="'Courier New', monospace">#AA55FF</text>
  <text x="696" y="685" font-size="9" fill="#4b5563">Premium / pro features</text>

  <!-- ── DECORATIVE ── -->
  <text x="40" y="720" font-size="9" fill="#4b5563" letter-spacing="2">DECORATIVE</text>
  <line x1="40" y1="726" x2="860" y2="726" stroke="#1f2937" stroke-width="1"/>

  <!-- Gold -->
  <rect x="40"  y="736" width="148" height="60" rx="8" fill="#fbbf24"/>
  <text x="40"  y="810" font-size="11" font-weight="600" fill="#d1d5db">Gold</text>
  <text x="40"  y="824" font-size="10" fill="#6b7280" font-family="'Courier New', monospace">#FBBF24</text>
  <text x="40"  y="837" font-size="9" fill="#4b5563">Rewards, achievements</text>

  <!-- Teal -->
  <rect x="204" y="736" width="148" height="60" rx="8" fill="#2dd4bf"/>
  <text x="204" y="810" font-size="11" font-weight="600" fill="#d1d5db">Teal</text>
  <text x="204" y="824" font-size="10" fill="#6b7280" font-family="'Courier New', monospace">#2DD4BF</text>
  <text x="204" y="837" font-size="9" fill="#4b5563">Education section accents</text>

  <!-- Deep Purple -->
  <rect x="368" y="736" width="148" height="60" rx="8" fill="#7c3aed"/>
  <text x="368" y="810" font-size="11" font-weight="600" fill="#d1d5db">Deep Purple</text>
  <text x="368" y="824" font-size="10" fill="#6b7280" font-family="'Courier New', monospace">#7C3AED</text>
  <text x="368" y="837" font-size="9" fill="#4b5563">Hero gradients, decorative</text>

  <!-- Purple Glow -->
  <rect x="532" y="736" width="148" height="60" rx="8" fill="#a78bfa"/>
  <text x="532" y="810" font-size="11" font-weight="600" fill="#d1d5db">Purple Light</text>
  <text x="532" y="824" font-size="10" fill="#6b7280" font-family="'Courier New', monospace">#A78BFA</text>
  <text x="532" y="837" font-size="9" fill="#4b5563">Purple hover, soft tint</text>

  <!-- Footer -->
  <text x="40"  y="960" font-size="9" fill="#374151">Growth Capital Academy · Brand Kit · generated from live codebase</text>
  <text x="860" y="960" font-size="9" fill="#374151" text-anchor="end">growthcapitalacademy.com</text>

</svg>
